#!OML:ASF H:\Dans Jumps\Project 1\Capture day 1\Session 1\subject.ASF
:FULLY-SPECIFIED
:DEGREES
213
root 0.487364 17.4856 -13.955 6.58017 -1.03637 -1.81099
lowerback -0.747762 -0.310278 0.197699
upperback 2.91977 -0.479485 2.00068
thorax 3.43595 -0.264461 1.93029
lowerneck -14.3159 0.957259 -1.41602
upperneck 29.7364 1.95436 -0.58844
head 12.1539 0.633145 0.305376
rclavicle -2.88238e-015 3.57812e-015
rhumerus -24.6776 -19.1462 -77.8467
rradius 23.6537
rwrist 33.8321
rhand -20.7569 -27.2879
rfingers 7.12502
rthumb 5.60905 -57.1936
lclavicle -2.88238e-015 3.57812e-015
lhumerus -21.2194 0.0899601 87.9323
lradius 18.2274
lwrist 2.82007
lhand -25.2952 -4.52424
lfingers 7.12502
lthumb 1.22648 25.452
rfemur -15.9495 -1.90705 20.0201
rtibia 24.8674
rfoot -14.4276 -2.10649
rtoes 8.53115
lfemur -14.8723 7.65847 -18.1032
ltibia 23.477
lfoot -13.0428 4.81228
ltoes 1.73496
214
root 0.487312 17.4793 -13.966 6.67441 -1.09938 -1.81543
lowerback -0.648165 -0.293057 0.173598
upperback 2.92046 -0.454532 2.0003
thorax 3.37973 -0.252495 1.9447
lowerneck -14.3353 0.964554 -1.39975
upperneck 29.6292 1.96217 -0.600097
head 12.1154 0.638107 0.299007
rclavicle -5.86415e-015 5.96354e-015
rhumerus -24.7156 -19.0327 -77.8637
rradius 23.7186
rwrist 33.7078
rhand -20.7941 -27.2475
rfingers 7.12502
rthumb 5.57318 -57.1542
lclavicle -5.86415e-015 5.96354e-015
lhumerus -21.2784 -0.00430502 87.9045
lradius 18.2972
lwrist 2.97632
lhand -25.3067 -4.57808
lfingers 7.12502
lthumb 1.21533 25.3982
rfemur -16.258 -1.88048 20.0309
rtibia 25.1561
rfoot -14.4998 -2.09579
rtoes 8.45183
lfemur -15.1807 7.75512 -18.1238
ltibia 23.7975
lfoot -13.1402 4.81167
ltoes 1.68195
215
root 0.487118 17.4722 -13.9777 6.77204 -1.16118 -1.81926
lowerback -0.54532 -0.2765 0.148379
upperback 2.92559 -0.430513 1.99903
thorax 3.3263 -0.241025 1.95873
lowerneck -14.3548 0.971375 -1.38799
upperneck 29.5078 1.9686 -0.606421
head 12.0711 0.642799 0.295169
rclavicle 5.36719e-015 -1.59028e-014
rhumerus -24.7549 -18.9019 -77.8842
rradius 23.7885
rwrist 33.5673
rhand -20.8124 -27.2259
rfingers 7.12502
rthumb 5.55548 -57.1331
lclavicle 5.36719e-015 -1.59028e-014
lhumerus -21.3385 -0.096188 87.871
lradius 18.3697
lwrist 3.13069
lhand -25.3191 -4.61534
lfingers 7.12502
lthumb 1.20335 25.361
rfemur -16.5838 -1.85477 20.0416
rtibia 25.4658
rfoot -14.5819 -2.08655
rtoes 8.36434
lfemur -15.5116 7.85292 -18.1456
ltibia 24.1462
lfoot -13.2439 4.80942
ltoes 1.62236
216
root 0.486827 17.4642 -13.9902 6.87305 -1.21731 -1.82066
lowerback -0.438647 -0.261134 0.122112
upperback 2.93495 -0.408088 1.99556
thorax 3.27512 -0.230359 1.97099
lowerneck -14.3692 0.976531 -1.3814
upperneck 29.3684 1.97155 -0.6061
head 12.0187 0.64646 0.294106
rclavicle 2.48481e-015 3.18055e-015
rhumerus -24.7923 -18.7708 -77.9054
rradius 23.855
rwrist 33.4261
rhand -20.8205 -27.2109
rfingers 7.12502
rthumb 5.54769 -57.1183
lclavicle 2.48481e-015 3.18055e-015
lhumerus -21.3975 -0.185899 87.8313
lradius 18.4417
lwrist 3.27956
lhand -25.3231 -4.62102
lfingers 7.12502
lthumb 1.19951 25.3553
rfemur -16.9266 -1.83466 20.0505
rtibia 25.7975
rfoot -14.6748 -2.07861
rtoes 8.26714
lfemur -15.8659 7.94446 -18.1707
ltibia 24.5227
lfoot -13.3504 4.8103
ltoes 1.54635
